<svg width="1173" height="1585" viewBox="0 0 1173 1585" fill="none" xmlns="http://www.w3.org/2000/svg">
<path d="M546.6 -110.518C546.378 -110.481 546.156 -110.444 545.934 -110.406C542.884 -108.008 669.057 -66.3478 1092.35 86.3325C1528.94 243.813 1283.17 748.586 1105.71 981.287L815.465 1857C611.84 1764.41 164.845 1408.04 5.86339 723.26C-46.4516 399.563 335.931 -74.6508 545.934 -110.406C546.03 -110.481 546.254 -110.518 546.6 -110.518Z" fill="url(#paint0_linear)"/>
<path d="M546.6 -110.518C336.74 -75.6539 -46.5069 399.221 5.86339 723.26C164.845 1408.04 611.84 1764.41 815.465 1857L1105.71 981.287C1283.17 748.586 1528.94 243.813 1092.35 86.3325C655.749 -71.1479 535.244 -110.518 546.6 -110.518ZM546.6 -110.518L661.494 -149" stroke="black"/>
<defs>
<linearGradient id="paint0_linear" x1="1.18747" y1="726.713" x2="1347.31" y2="555.556" gradientUnits="userSpaceOnUse">
<stop offset="0.00833321" stop-color="#38D39F"/>
<stop offset="0.289583" stop-color="#38A4D3"/>
</linearGradient>
</defs>
</svg>
