<svg width="1173" height="1585" viewBox="0 0 1173 1585" fill="none" xmlns="http://www.w3.org/2000/svg">
<path d="M683 -86.2853C682.723 -86.2492 682.446 -86.2126 682.168 -86.1756C678.355 -83.8256 836.071 -42.9959 1365.18 106.64C1910.93 260.98 1603.71 755.688 1381.88 983.749L1019.08 1842C764.55 1751.26 205.806 1401.99 7.07924 730.867C-58.3145 413.625 419.664 -51.1333 682.168 -86.1756C682.288 -86.2494 682.567 -86.2853 683 -86.2853Z" fill="url(#paint0_linear)"/>
<path d="M683 -86.2853C420.675 -52.1164 -58.3836 413.29 7.07924 730.867C205.806 1402 764.55 1751.26 1019.08 1842L1381.88 983.749C1603.71 755.687 1910.93 260.98 1365.18 106.64C819.437 -47.7003 668.805 -86.2853 683 -86.2853ZM683 -86.2853L826.617 -124" stroke="black"/>
<defs>
<linearGradient id="paint0_linear" x1="1.23434" y1="734.251" x2="1667.28" y2="464.072" gradientUnits="userSpaceOnUse">
<stop offset="0.00833321" stop-color="#38D39F"/>
<stop offset="0.289583" stop-color="#38A4D3"/>
</linearGradient>
</defs>
</svg>
