<svg width="1173" height="1585" viewBox="0 0 1173 1585" fill="none" xmlns="http://www.w3.org/2000/svg">
<path d="M817.5 -85C817.168 -84.9627 816.836 -84.9249 816.503 -84.8865C811.937 -82.4565 1000.82 -40.2353 1634.5 114.5C2288.1 274.1 1920.17 785.667 1654.5 1021.5L1220 1909C915.167 1815.17 246 1454 8.00001 760C-70.3172 431.947 502.122 -48.6501 816.503 -84.8865C816.647 -84.9629 816.982 -85 817.5 -85Z" fill="url(#paint0_linear)"/>
<path d="M817.5 -85C503.333 -49.6667 -70.4 431.6 8.00001 760C246 1454 915.167 1815.17 1220 1909L1654.5 1021.5C1920.17 785.667 2288.1 274.1 1634.5 114.5C980.9 -45.1 800.5 -85 817.5 -85ZM817.5 -85L989.5 -124" stroke="black"/>
<defs>
<linearGradient id="paint0_linear" x1="1.00002" y1="763.5" x2="1979" y2="392" gradientUnits="userSpaceOnUse">
<stop offset="0.00833321" stop-color="#38D39F"/>
<stop offset="0.289583" stop-color="#38A4D3"/>
</linearGradient>
</defs>
</svg>
