<svg width="545" height="463" viewBox="0 0 545 463" fill="none" xmlns="http://www.w3.org/2000/svg">
<g id="undraw_dev_productivity_umsq 1" clip-path="url(#clip0)">
<path id="Vector" d="M352.757 419.663C352.757 419.663 349.509 420.756 344.227 422.306C332.551 425.749 310.945 431.459 292.636 432.599C276.872 433.593 263.551 431.204 261.115 421.092C260.071 416.744 261.552 413.167 264.78 410.228C274.415 401.445 299.583 398.298 319.544 397.218C325.181 396.916 330.394 396.775 334.735 396.721C342.105 396.627 346.936 396.775 346.936 396.775L347.052 397.218L352.757 419.663Z" fill="#A0616A"/>
<path id="Vector_2" d="M298.211 451.837C285.668 467.109 233.886 435.116 215.775 423.185C211.83 420.589 209.483 418.945 209.483 418.945L226.052 397.218L231.3 390.34C231.3 390.34 235.995 392.789 242.935 396.775C243.188 396.923 243.44 397.07 243.699 397.218C249.684 400.673 257.198 405.189 264.779 410.228C275.241 417.187 285.819 425.125 292.636 432.599C299.303 439.907 302.367 446.771 298.211 451.837Z" fill="#A0616A"/>
<path id="Vector_3" d="M452.889 443.651V447.724C452.892 448.842 452.681 449.95 452.268 450.992C452.085 451.456 451.864 451.905 451.606 452.334C450.793 453.676 449.639 454.787 448.257 455.559C446.875 456.331 445.313 456.736 443.724 456.735H138.989C137.4 456.736 135.838 456.331 134.456 455.559C133.075 454.787 131.92 453.676 131.107 452.334C130.85 451.905 130.629 451.456 130.445 450.992C130.033 449.95 129.822 448.842 129.824 447.724V443.651C129.824 442.467 130.061 441.295 130.521 440.202C130.982 439.108 131.657 438.115 132.508 437.278C133.359 436.441 134.369 435.777 135.482 435.325C136.594 434.872 137.786 434.639 138.989 434.639H156.555V432.74C156.555 432.691 156.564 432.642 156.584 432.597C156.603 432.551 156.631 432.509 156.666 432.475C156.702 432.44 156.744 432.412 156.79 432.393C156.837 432.374 156.887 432.365 156.937 432.365H166.102C166.152 432.365 166.202 432.374 166.248 432.393C166.294 432.412 166.337 432.44 166.372 432.475C166.408 432.509 166.436 432.551 166.455 432.597C166.474 432.642 166.484 432.691 166.484 432.74V434.639H172.209V432.74C172.209 432.691 172.219 432.642 172.238 432.597C172.257 432.551 172.286 432.509 172.321 432.475C172.357 432.44 172.399 432.412 172.445 432.393C172.492 432.374 172.541 432.365 172.592 432.365H181.756C181.807 432.365 181.856 432.374 181.903 432.393C181.949 432.412 181.991 432.44 182.027 432.475C182.062 432.509 182.091 432.551 182.11 432.597C182.129 432.642 182.139 432.691 182.139 432.74V434.639H187.871V432.74C187.871 432.691 187.881 432.642 187.9 432.597C187.919 432.551 187.947 432.509 187.983 432.475C188.018 432.44 188.06 432.412 188.107 432.393C188.153 432.374 188.203 432.365 188.253 432.365H197.418C197.468 432.365 197.518 432.374 197.564 432.393C197.611 432.412 197.653 432.44 197.688 432.475C197.724 432.509 197.752 432.551 197.771 432.597C197.79 432.642 197.8 432.691 197.8 432.74V434.639H203.526V432.74C203.526 432.691 203.535 432.642 203.555 432.597C203.574 432.551 203.602 432.509 203.637 432.475C203.673 432.44 203.715 432.412 203.762 432.393C203.808 432.374 203.858 432.365 203.908 432.365H213.073C213.123 432.365 213.173 432.374 213.219 432.393C213.266 432.412 213.308 432.44 213.343 432.475C213.379 432.509 213.407 432.551 213.426 432.597C213.445 432.642 213.455 432.691 213.455 432.74V434.639H219.18V432.74C219.18 432.691 219.19 432.642 219.209 432.597C219.229 432.551 219.257 432.509 219.292 432.475C219.328 432.44 219.37 432.412 219.416 432.393C219.463 432.374 219.512 432.365 219.563 432.365H228.727C228.778 432.365 228.827 432.374 228.874 432.393C228.92 432.412 228.962 432.44 228.998 432.475C229.033 432.509 229.062 432.551 229.081 432.597C229.1 432.642 229.11 432.691 229.11 432.74V434.639H234.842V432.74C234.842 432.691 234.852 432.642 234.871 432.597C234.89 432.551 234.918 432.509 234.954 432.475C234.989 432.44 235.031 432.412 235.078 432.393C235.124 432.374 235.174 432.365 235.224 432.365H244.389C244.439 432.365 244.489 432.374 244.535 432.393C244.582 432.412 244.624 432.44 244.659 432.475C244.695 432.509 244.723 432.551 244.742 432.597C244.761 432.642 244.771 432.691 244.771 432.74V434.639H250.497V432.74C250.497 432.691 250.506 432.642 250.526 432.597C250.545 432.551 250.573 432.509 250.608 432.475C250.644 432.44 250.686 432.412 250.733 432.393C250.779 432.374 250.829 432.365 250.879 432.365H322.67C322.72 432.365 322.77 432.374 322.816 432.393C322.862 432.412 322.904 432.44 322.94 432.475C322.976 432.509 323.004 432.551 323.023 432.597C323.042 432.642 323.052 432.691 323.052 432.74V434.639H328.784V432.74C328.784 432.691 328.794 432.642 328.813 432.597C328.832 432.551 328.86 432.509 328.896 432.475C328.931 432.44 328.973 432.412 329.02 432.393C329.066 432.374 329.116 432.365 329.166 432.365H338.331C338.432 432.366 338.529 432.406 338.6 432.476C338.672 432.546 338.712 432.641 338.713 432.74V434.639H344.439V432.74C344.439 432.691 344.449 432.642 344.468 432.597C344.487 432.551 344.515 432.509 344.551 432.475C344.586 432.44 344.628 432.412 344.675 432.393C344.721 432.374 344.771 432.365 344.821 432.365H353.986C354.036 432.365 354.086 432.374 354.132 432.393C354.179 432.412 354.221 432.44 354.256 432.475C354.292 432.509 354.32 432.551 354.339 432.597C354.358 432.642 354.368 432.691 354.368 432.74V434.639H360.094V432.74C360.094 432.691 360.103 432.642 360.123 432.597C360.142 432.551 360.17 432.509 360.205 432.475C360.241 432.44 360.283 432.412 360.329 432.393C360.376 432.374 360.426 432.365 360.476 432.365H369.641C369.691 432.365 369.741 432.374 369.787 432.393C369.833 432.412 369.876 432.44 369.911 432.475C369.947 432.509 369.975 432.551 369.994 432.597C370.013 432.642 370.023 432.691 370.023 432.74V434.639H375.755V432.74C375.755 432.691 375.765 432.642 375.784 432.597C375.803 432.551 375.831 432.509 375.867 432.475C375.902 432.44 375.945 432.412 375.991 432.393C376.037 432.374 376.087 432.365 376.137 432.365H385.302C385.403 432.366 385.498 432.406 385.569 432.476C385.639 432.547 385.678 432.642 385.678 432.74V434.639H391.41V432.74C391.41 432.691 391.42 432.642 391.439 432.597C391.458 432.551 391.486 432.509 391.522 432.475C391.557 432.44 391.599 432.412 391.646 432.393C391.692 432.374 391.742 432.365 391.792 432.365H400.957C401.007 432.365 401.057 432.374 401.103 432.393C401.15 432.412 401.192 432.44 401.227 432.475C401.263 432.509 401.291 432.551 401.31 432.597C401.329 432.642 401.339 432.691 401.339 432.74V434.639H407.065V432.74C407.065 432.691 407.074 432.642 407.094 432.597C407.113 432.551 407.141 432.509 407.176 432.475C407.212 432.44 407.254 432.412 407.3 432.393C407.347 432.374 407.397 432.365 407.447 432.365H416.612C416.662 432.365 416.712 432.374 416.758 432.393C416.804 432.412 416.847 432.44 416.882 432.475C416.918 432.509 416.946 432.551 416.965 432.597C416.984 432.642 416.994 432.691 416.994 432.74V434.639H443.724C444.928 434.639 446.12 434.872 447.232 435.325C448.344 435.777 449.354 436.441 450.206 437.278C451.057 438.115 451.732 439.108 452.192 440.202C452.653 441.295 452.89 442.467 452.889 443.651V443.651Z" fill="#3F3D56"/>
<path id="Vector_4" d="M541.501 450.991H41.2866V452.333H541.501V450.991Z" fill="#3F3D56"/>
<path id="Vector_5" d="M289.006 342.29C298.428 342.29 306.066 334.78 306.066 325.515C306.066 316.251 298.428 308.74 289.006 308.74C279.584 308.74 271.945 316.251 271.945 325.515C271.945 334.78 279.584 342.29 289.006 342.29Z" stroke="#D0CDE1" stroke-width="1.36421" stroke-miterlimit="10"/>
<path id="Vector_6" d="M283.546 348.329C292.968 348.329 300.607 340.819 300.607 331.554C300.607 322.29 292.968 314.779 283.546 314.779C274.124 314.779 266.486 322.29 266.486 331.554C266.486 340.819 274.124 348.329 283.546 348.329Z" fill="#D0CDE1"/>
<path id="Vector_7" d="M74.0057 444.212H54.8979V463H74.0057V444.212Z" fill="#D0CDE1"/>
<path id="Vector_8" d="M62.4072 429.45V452.264H85.6095V429.45H62.4072ZM84.5996 451.271H63.4104V430.443H84.5996V451.271Z" fill="#3F3D56"/>
<path id="Vector_9" d="M516.215 444.212H497.107V463H516.215V444.212Z" fill="#D0CDE1"/>
<path id="Vector_10" d="M504.616 429.45V452.264H527.818V429.45H504.616ZM526.808 451.271H505.619V430.443H526.808V451.271Z" fill="#3F3D56"/>
<path id="Vector_11" d="M68.4744 149.952C98.3771 149.952 122.618 126.117 122.618 96.7153C122.618 67.3132 98.3771 43.4781 68.4744 43.4781C38.5717 43.4781 14.3308 67.3132 14.3308 96.7153C14.3308 126.117 38.5717 149.952 68.4744 149.952Z" fill="#38D39F"/>
<path id="Vector_12" d="M83.4117 38.439C78.5093 37.8259 73.5477 37.8259 68.6453 38.439C57.7235 39.849 47.4423 44.3101 39.0217 51.293C30.6011 58.2758 24.3945 67.4873 21.1384 77.8344C19.6576 82.5499 18.8189 87.4376 18.6445 92.3698C18.62 93.0554 18.6035 93.7491 18.6035 94.4428C18.6187 109.413 24.6737 123.766 35.4397 134.352C46.2057 144.938 60.8031 150.891 76.0285 150.906C77.2509 150.906 78.4732 150.866 79.6791 150.793C82.5099 150.619 85.3234 150.236 88.096 149.648C101.336 146.848 113.144 139.538 121.435 129.009C129.725 118.479 133.965 105.408 133.404 92.1031C132.844 78.7983 127.52 66.1162 118.372 56.2968C109.225 46.4774 96.8421 40.1524 83.4117 38.439H83.4117ZM94.0025 146.373H93.9943C89.3695 147.925 84.5557 148.866 79.6791 149.172C78.4731 149.253 77.2508 149.293 76.0285 149.293C61.2391 149.275 47.0607 143.491 36.603 133.208C26.1453 122.926 20.2623 108.985 20.2442 94.4428C20.2442 93.7491 20.2606 93.0554 20.2852 92.3698C20.8491 78.198 26.9665 64.7901 37.3567 54.9528C47.7469 45.1154 61.6044 39.6112 76.0285 39.5924C89.2445 39.5932 102.031 44.2072 112.11 52.6126C122.189 61.0179 128.906 72.6686 131.064 85.489C133.222 98.3093 130.681 111.467 123.894 122.617C117.106 133.767 106.514 142.186 94.0025 146.373H94.0025Z" fill="#3F3D56"/>
<path id="Vector_13" d="M76.8487 42.819H75.208V54.1117H76.8487V42.819Z" fill="#3F3D56"/>
<path id="Vector_14" d="M39.4834 57.3688L38.3232 58.5096L46.4444 66.4947L47.6045 65.354L39.4834 57.3688Z" fill="#3F3D56"/>
<path id="Vector_15" d="M23.5256 93.6362V95.2495H35.0106V93.6362H23.5256Z" fill="#3F3D56"/>
<path id="Vector_16" d="M38.323 130.376L39.4832 131.517L47.6043 123.532L46.4441 122.391L38.323 130.376Z" fill="#3F3D56"/>
<path id="Vector_17" d="M104.453 65.3539L105.613 66.4947L113.734 58.5095L112.574 57.3688L104.453 65.3539Z" fill="#3F3D56"/>
<path id="Vector_18" d="M117.046 93.6362V95.2495H128.531V93.6362H117.046Z" fill="#3F3D56"/>
<path id="Vector_19" d="M105.613 122.391L104.452 123.532L112.574 131.517L113.734 130.376L105.613 122.391Z" fill="#3F3D56"/>
<path id="Vector_20" d="M76.8487 134.774H75.208V146.067H76.8487V134.774Z" fill="#3F3D56"/>
<path id="Vector_21" d="M78.4893 91.2163C77.7793 90.6927 76.9158 90.4097 76.0283 90.4097C75.1408 90.4097 74.2772 90.6927 73.5672 91.2163C73.0811 91.5793 72.6809 92.0416 72.3941 92.5714C72.0307 93.2536 71.8735 94.0238 71.9411 94.7911C72.0087 95.5583 72.2982 96.2905 72.7755 96.901C73.2528 97.5116 73.898 97.9751 74.6346 98.2366C75.3713 98.4982 76.1687 98.547 76.9326 98.3771C77.6966 98.2073 78.3951 97.8259 78.9456 97.2782C79.4962 96.7305 79.8757 96.0392 80.0394 95.2861C80.2032 94.533 80.1442 93.7496 79.8695 93.0284C79.5948 92.3072 79.1159 91.6784 78.4894 91.2163H78.4893ZM76.0283 96.8626C75.3761 96.8608 74.7513 96.6052 74.2901 96.1518C73.829 95.6984 73.5691 95.084 73.5672 94.4428C73.5704 93.9534 73.7218 93.476 74.002 93.0715C74.2424 92.7292 74.5685 92.4537 74.9489 92.2716C75.3292 92.0895 75.7509 92.0069 76.1732 92.032C76.5955 92.057 77.0041 92.1888 77.3594 92.4145C77.7148 92.6402 78.0049 92.9523 78.2017 93.3205C78.3985 93.6887 78.4953 94.1006 78.4829 94.5164C78.4704 94.9322 78.349 95.3378 78.1305 95.694C77.9119 96.0501 77.6036 96.3448 77.2354 96.5496C76.8671 96.7543 76.4513 96.8621 76.0283 96.8626V96.8626Z" fill="#3F3D56"/>
<path id="Vector_22" d="M83.4117 24.2666H68.6453V38.7858H83.4117V24.2666Z" fill="#3F3D56"/>
<path id="Vector_23" d="M76.0284 26.6864C86.9021 26.6864 95.717 23.6167 95.717 19.8301C95.717 16.0435 86.9021 12.9738 76.0284 12.9738C65.1547 12.9738 56.3398 16.0435 56.3398 19.8301C56.3398 23.6167 65.1547 26.6864 76.0284 26.6864Z" fill="#3F3D56"/>
<path id="arrow" d="M77.9409 62.937H73.0188V90.3621H77.9409V62.937Z" fill="#3F3D56"/>
<path id="Vector_24" d="M154.227 148.449H0V150.062H154.227V148.449Z" fill="#3F3D56"/>
<g id="left-plant">
<path id="Vector_25" d="M102.768 402.967C103.405 424.405 90.6656 432.262 74.6778 432.721C74.3065 432.732 73.9367 432.738 73.5687 432.741C72.8273 432.746 72.0931 432.734 71.366 432.704C56.9067 432.114 45.4612 424.567 44.869 404.63C44.2562 383.997 70.3022 357.188 72.2563 355.205L72.2598 355.203C72.334 355.128 72.372 355.09 72.372 355.09C72.372 355.09 102.132 381.53 102.768 402.967Z" fill="#D0CDE1"/>
<path id="Vector_26" d="M73.5266 429.472L83.6826 414.622L73.5473 431.07L73.5685 432.741C72.8271 432.746 72.0929 432.734 71.3658 432.704L71.8696 411.224L71.8558 411.059L71.8743 411.027L71.9226 408.997L60.8005 393.119L71.9094 407.478L71.9489 407.907L72.3293 391.678L62.7229 375.217L72.3567 388.827L72.2561 355.205L72.2563 355.093L72.2596 355.203L72.8973 381.702L81.6524 370.938L72.926 383.985L73.117 398.501L81.1736 384.334L73.1467 400.635L73.253 408.707L84.9694 388.972L73.2886 411.523L73.5266 429.472Z" fill="#3F3D56"/>
</g>
<g id="right-plant">
<path id="Vector_27" d="M544.977 402.967C545.614 424.405 532.875 432.262 516.887 432.721C516.515 432.732 516.146 432.738 515.778 432.741C515.036 432.746 514.302 432.734 513.575 432.704C499.116 432.114 487.67 424.567 487.078 404.63C486.465 383.997 512.511 357.188 514.465 355.205L514.469 355.203C514.543 355.128 514.581 355.09 514.581 355.09C514.581 355.09 544.341 381.53 544.977 402.967Z" fill="#D0CDE1"/>
<path id="Vector_28" d="M515.735 429.472L525.891 414.622L515.756 431.07L515.777 432.741C515.036 432.746 514.302 432.734 513.575 432.704L514.078 411.224L514.065 411.059L514.083 411.027L514.131 408.997L503.009 393.119L514.118 407.478L514.158 407.907L514.538 391.678L504.932 375.217L514.565 388.827L514.465 355.205L514.465 355.093L514.468 355.203L515.106 381.702L523.861 370.938L515.135 383.985L515.326 398.501L523.382 384.334L515.355 400.635L515.462 408.707L527.178 388.972L515.497 411.523L515.735 429.472Z" fill="#3F3D56"/>
</g>
<g id="female">
<path id="Vector_29" d="M339.583 173.467C353.585 173.467 364.935 162.213 364.935 148.33C364.935 134.447 353.585 123.192 339.583 123.192C325.581 123.192 314.231 134.447 314.231 148.33C314.231 162.213 325.581 173.467 339.583 173.467Z" fill="#2F2E41"/>
<path id="Vector_30" d="M346.646 123.884C351.034 123.885 355.346 125.014 359.161 127.162C362.977 129.31 366.165 132.403 368.414 136.138C370.663 139.873 371.896 144.123 371.992 148.473C372.089 152.822 371.045 157.122 368.964 160.951C371.162 158.225 372.763 155.074 373.664 151.7C374.566 148.326 374.75 144.802 374.202 141.354C373.655 137.906 372.389 134.608 370.486 131.672C368.582 128.736 366.083 126.225 363.146 124.299C360.21 122.374 356.901 121.076 353.431 120.488C349.961 119.901 346.405 120.036 342.991 120.887C339.576 121.737 336.378 123.283 333.599 125.427C330.821 127.57 328.523 130.264 326.853 133.337C329.223 130.387 332.233 128.005 335.66 126.368C339.087 124.731 342.842 123.882 346.646 123.884V123.884Z" fill="#2F2E41"/>
<path id="Vector_31" d="M292.209 148.277C333.338 148.277 366.68 115.217 366.68 74.4359C366.68 33.6546 333.338 0.594849 292.209 0.594849C251.079 0.594849 217.737 33.6546 217.737 74.4359C217.737 115.217 251.079 148.277 292.209 148.277Z" fill="#2F2E41"/>
<path id="Vector_32" d="M233.76 28.6204C246.593 14.3111 264.53 5.50497 283.786 4.06042C303.042 2.61588 322.112 8.64597 336.969 20.878C336.36 20.304 335.757 19.7254 335.125 19.1676C320.362 6.16599 300.995 -0.490179 281.284 0.662664C261.573 1.81551 243.13 10.683 230.011 25.3153C216.892 39.9477 210.171 59.147 211.325 78.6919C212.479 98.2368 221.414 116.527 236.166 129.541C236.799 130.099 237.449 130.625 238.095 131.157C224.103 117.96 215.83 99.8887 215.021 80.7576C214.212 61.6266 220.931 42.9323 233.76 28.6204Z" fill="#2F2E41"/>
<path id="Vector_33" d="M291.578 147.65C318.068 147.65 339.543 126.358 339.543 100.092C339.543 73.8259 318.068 52.5332 291.578 52.5332C265.087 52.5332 243.613 73.8259 243.613 100.092C243.613 126.358 265.087 147.65 291.578 147.65Z" fill="#FFB8B8"/>
<path id="Vector_34" d="M316.08 160.561L264.751 162.849C264.751 162.849 269.035 189.169 241.266 191.672C213.497 194.176 188.252 186.666 178.154 205.439C168.056 224.213 172.409 291.059 172.409 291.059C172.409 291.059 191.342 358.642 206.489 368.655C221.636 378.667 354.17 364.9 354.17 364.9L409.637 295.458L407.758 241.903C406.777 213.938 381.026 192.941 353.291 198.116C352.747 198.218 352.198 198.327 351.646 198.445C351.646 198.445 345.553 193.929 328.835 185.641C318.612 180.573 316.08 160.561 316.08 160.561Z" fill="#CACACA"/>
<path id="Vector_35" d="M204.661 190.421C204.661 190.421 216.861 212.369 211.812 243.657C206.763 274.946 227.947 341.121 227.947 341.121L243.094 337.366C243.094 337.366 232.996 272.286 235.521 257.267C238.045 242.249 238.742 197.93 226.119 190.421C213.497 182.912 204.661 190.421 204.661 190.421Z" fill="#2F2E41"/>
<path id="Vector_36" d="M350.758 201.929L356.064 340.495L366.162 346.753C366.162 346.753 380.677 194.69 373.104 194.69H357.694C356.782 194.69 355.879 194.868 355.036 195.214C354.194 195.56 353.428 196.067 352.783 196.707C352.138 197.346 351.627 198.106 351.278 198.941C350.929 199.776 350.749 200.672 350.749 201.576C350.749 201.694 350.752 201.811 350.758 201.929Z" fill="#2F2E41"/>
<path id="Vector_37" d="M250.555 40.643V88.2017H261.663L275.8 73.1831L273.907 88.2017H323.007L319.978 73.1831L326.037 88.2017H333.863V40.643H250.555Z" fill="#2F2E41"/>
<path id="Vector_38" d="M242.982 96.963C245.073 96.963 246.768 93.8811 246.768 90.0795C246.768 86.2778 245.073 83.196 242.982 83.196C240.89 83.196 239.195 86.2778 239.195 90.0795C239.195 93.8811 240.89 96.963 242.982 96.963Z" fill="#FFB8B8"/>
<path id="Vector_39" d="M340.174 96.963C342.265 96.963 343.961 93.8811 343.961 90.0795C343.961 86.2778 342.265 83.196 340.174 83.196C338.083 83.196 336.387 86.2778 336.387 90.0795C336.387 93.8811 338.083 96.963 340.174 96.963Z" fill="#FFB8B8"/>
</g>
<path id="Vector_40" d="M428.352 272.124H314.768V269.823H263.264V272.124H149.212C147.174 272.124 145.22 272.92 143.779 274.337C142.338 275.754 141.529 277.675 141.529 279.679V432.607C141.529 434.61 142.338 436.532 143.779 437.948C145.22 439.365 147.174 440.161 149.212 440.161H428.352C430.39 440.161 432.344 439.365 433.785 437.948C435.226 436.532 436.035 434.61 436.035 432.607V279.679C436.035 278.687 435.836 277.704 435.45 276.788C435.064 275.871 434.498 275.039 433.785 274.337C433.071 273.636 432.224 273.079 431.292 272.699C430.36 272.32 429.361 272.124 428.352 272.124V272.124Z" fill="#3F3D56"/>
<path id="Vector_41" d="M295.214 343.946C305.157 343.946 313.218 336.021 313.218 326.243C313.218 316.466 305.157 308.54 295.214 308.54C285.27 308.54 277.209 316.466 277.209 326.243C277.209 336.021 285.27 343.946 295.214 343.946Z" stroke="#D0CDE1" stroke-width="1.4397" stroke-miterlimit="10"/>
<path id="Vector_42" d="M289.452 350.32C299.396 350.32 307.456 342.394 307.456 332.616C307.456 322.839 299.396 314.913 289.452 314.913C279.508 314.913 271.447 322.839 271.447 332.616C271.447 342.394 279.508 350.32 289.452 350.32Z" fill="#D0CDE1"/>
</g>
<defs>
<clipPath id="clip0">
<rect width="545" height="462.466" fill="white" transform="translate(0 0.534424)"/>
</clipPath>
</defs>
</svg>
