<svg width="630" height="534" viewBox="0 0 630 534" fill="none" xmlns="http://www.w3.org/2000/svg">
<g id="undraw_dev_productivity_umsq 1" clip-path="url(#clip0)">
<path id="Vector" d="M407.322 483.959C407.322 483.959 403.571 485.222 397.472 487.012C383.99 490.987 359.042 497.58 337.901 498.897C319.699 500.044 304.317 497.286 301.504 485.61C300.299 480.589 302.009 476.459 305.736 473.066C316.862 462.924 345.923 459.29 368.971 458.043C375.48 457.694 381.5 457.531 386.511 457.469C395.022 457.361 400.6 457.531 400.6 457.531L400.734 458.043L407.322 483.959Z" fill="#A0616A"/>
<path id="Vector_2" d="M344.339 521.11C329.856 538.744 270.064 501.803 249.151 488.027C244.596 485.028 241.886 483.13 241.886 483.13L261.018 458.043L267.077 450.101C267.077 450.101 272.499 452.929 280.512 457.531C280.804 457.702 281.096 457.872 281.395 458.043C288.306 462.033 296.981 467.247 305.736 473.066C317.815 481.1 330.029 490.266 337.901 498.897C345.599 507.334 349.137 515.261 344.339 521.11Z" fill="#A0616A"/>
<g id="me">
<path id="Vector_3" d="M343.097 153.362C375.099 153.362 401.042 127.854 401.042 96.3873C401.042 64.921 375.099 39.4126 343.097 39.4126C311.095 39.4126 285.152 64.921 285.152 96.3873C285.152 127.854 311.095 153.362 343.097 153.362Z" fill="#A0616A"/>
<path id="Vector_4" d="M299.848 124.875C299.848 124.875 310.765 205.795 293.969 214.878C277.174 223.961 393.903 224.787 393.903 224.787C393.903 224.787 367.87 154.601 379.627 133.132L299.848 124.875Z" fill="#A0616A"/>
<path id="Vector_5" d="M479.14 225.196L469.432 268.662L448.905 360.621L448.291 365.657L441.207 423.96L436.495 462.691L433.335 488.709C414.124 498.417 400.2 505.119 400.2 505.119C400.2 505.119 399.003 499.215 397.072 491.661C383.59 495.635 358.642 502.229 337.501 503.546C345.2 511.983 348.738 519.909 343.939 525.759C329.456 543.393 269.664 506.451 248.751 492.676C248.264 495.974 248.08 499.309 248.199 502.639L232.196 490.537L233.779 462.691L236.451 415.577L239.807 356.491C238.749 353.961 237.862 351.365 237.152 348.72C232.251 331.582 226.301 297.36 221.739 268.662C218.067 245.565 215.309 226.048 214.726 221.896C214.647 221.353 214.608 221.074 214.608 221.074L303.2 182.583C309.496 196.94 338.896 201.255 338.896 201.255C363.252 199.605 382.345 186.976 382.345 186.976L479.14 225.196Z" fill="#D0CDE1"/>
<path id="Vector_6" d="M294.892 42.4945L284.058 38.2297C284.058 38.2297 306.711 13.7071 338.229 15.8396L329.365 6.24373C329.365 6.24373 351.033 -2.28578 370.732 20.1043C381.087 31.8743 393.068 45.7093 400.537 61.2943H412.14L407.297 71.7785L424.246 82.2627L406.85 80.3796C407.886 86.1209 408.045 91.9822 407.322 97.7696C406.575 103.559 403.571 108.837 398.942 112.489V112.489C398.942 112.489 385.506 85.1424 385.506 80.8776V91.5396C385.506 91.5396 374.671 81.9438 374.671 75.5467L368.762 83.01L365.807 71.2818L329.365 83.01L335.274 73.4143L312.621 76.6129L321.485 64.8846C321.485 64.8846 295.877 78.7452 294.892 90.4735C293.907 102.202 286.412 113.315 286.412 113.315C286.412 113.315 266.329 58.4874 294.892 42.4945Z" fill="#2F2E41"/>
<path id="Vector_7" d="M542.123 425.021C536.221 431.312 521.596 440.788 503.867 451.046C497.271 454.858 490.251 458.786 483.088 462.691C465.997 472.012 448.102 481.247 433.335 488.709C414.124 498.417 400.2 505.119 400.2 505.119C400.2 505.119 399.003 499.215 397.072 491.661C394.488 481.55 390.595 468.479 386.537 462.691C386.395 462.49 386.253 462.304 386.111 462.118C384.929 460.592 383.74 459.701 382.565 459.701L441.207 423.96L466.548 408.511L448.291 365.657L425.392 311.902L439.213 268.662L453.105 225.196H479.14C479.14 225.196 487.761 243.698 498.784 269.498C500.431 273.357 502.133 277.378 503.867 281.531C526.545 335.766 554.817 411.501 542.123 425.021Z" fill="#D0CDE1"/>
<path id="Vector_8" d="M280.113 462.18C277.974 462.172 275.839 462.343 273.73 462.691C255.614 465.752 250.272 481.875 248.751 492.676C248.264 495.974 248.08 499.309 248.199 502.639L232.196 490.537L226.365 486.129C212.331 481.317 199.825 472.771 188.983 462.691C179.577 453.792 171.139 443.953 163.807 433.335C156.504 422.869 149.993 411.889 144.328 400.484C142.747 397.301 141.898 393.816 141.839 390.274C141.781 386.733 142.515 383.222 143.989 379.991L163.807 336.564L192.773 273.094C192.986 271.583 193.22 270.105 193.474 268.662C199.219 236.276 214.608 221.896 214.608 221.896H226.365L234.229 268.662L244 326.763L237.152 348.72L221.329 399.43L236.451 415.577L280.113 462.18Z" fill="#D0CDE1"/>
<path id="Vector_9" d="M290.9 326.809L300.95 338.339C304.685 337.639 308.584 336.816 312.6 335.892L309.713 326.809L316.772 334.906C359.321 324.616 412.059 304.611 412.059 304.611C412.059 304.611 355.122 308.716 312.61 299.584C293.8 295.543 274.448 304.711 266.729 322.054C262.243 332.135 262.947 340.868 278.859 340.868C284.236 340.778 289.597 340.282 294.897 339.385L290.9 326.809Z" fill="#38D39F"/>
</g>
<path id="Vector_10" d="M522.942 511.658V516.361C522.945 517.652 522.702 518.931 522.225 520.134C522.013 520.67 521.758 521.188 521.461 521.684C520.522 523.234 519.189 524.517 517.593 525.408C515.998 526.299 514.194 526.767 512.36 526.766H160.488C158.653 526.767 156.849 526.299 155.254 525.408C153.658 524.517 152.326 523.234 151.387 521.684C151.09 521.188 150.834 520.67 150.622 520.134C150.146 518.931 149.903 517.652 149.905 516.361V511.658C149.905 510.291 150.178 508.938 150.71 507.675C151.242 506.413 152.021 505.266 153.004 504.299C153.987 503.333 155.154 502.567 156.438 502.044C157.722 501.521 159.098 501.252 160.488 501.253H180.77V499.06C180.77 499.003 180.782 498.946 180.804 498.894C180.826 498.841 180.858 498.793 180.899 498.753C180.94 498.713 180.989 498.681 181.043 498.659C181.096 498.637 181.154 498.626 181.212 498.626H191.794C191.852 498.626 191.91 498.637 191.963 498.659C192.017 498.681 192.065 498.713 192.106 498.753C192.147 498.793 192.18 498.841 192.202 498.894C192.224 498.946 192.236 499.003 192.235 499.06V501.253H198.847V499.06C198.846 499.003 198.858 498.946 198.88 498.894C198.902 498.841 198.935 498.793 198.976 498.753C199.017 498.713 199.065 498.681 199.119 498.659C199.172 498.637 199.23 498.626 199.288 498.626H209.87C209.928 498.626 209.986 498.637 210.039 498.659C210.093 498.681 210.142 498.713 210.183 498.753C210.224 498.793 210.256 498.841 210.278 498.894C210.3 498.946 210.312 499.003 210.312 499.06V501.253H216.931V499.06C216.931 499.003 216.942 498.946 216.964 498.894C216.986 498.841 217.019 498.793 217.06 498.753C217.101 498.713 217.149 498.681 217.203 498.659C217.257 498.637 217.314 498.626 217.372 498.626H227.955C228.012 498.626 228.07 498.637 228.123 498.659C228.177 498.681 228.226 498.713 228.267 498.753C228.308 498.793 228.34 498.841 228.362 498.894C228.385 498.946 228.396 499.003 228.396 499.06V501.253H235.007V499.06C235.007 499.003 235.018 498.946 235.04 498.894C235.062 498.841 235.095 498.793 235.136 498.753C235.177 498.713 235.226 498.681 235.279 498.659C235.333 498.637 235.39 498.626 235.448 498.626H246.031C246.089 498.626 246.146 498.637 246.2 498.659C246.253 498.681 246.302 498.713 246.343 498.753C246.384 498.793 246.416 498.841 246.439 498.894C246.461 498.946 246.472 499.003 246.472 499.06V501.253H253.083V499.06C253.083 499.003 253.094 498.946 253.117 498.894C253.139 498.841 253.171 498.793 253.212 498.753C253.253 498.713 253.302 498.681 253.355 498.659C253.409 498.637 253.466 498.626 253.524 498.626H264.107C264.165 498.626 264.222 498.637 264.276 498.659C264.33 498.681 264.378 498.713 264.419 498.753C264.46 498.793 264.493 498.841 264.515 498.894C264.537 498.946 264.548 499.003 264.548 499.06V501.253H271.167V499.06C271.167 499.003 271.178 498.946 271.201 498.894C271.223 498.841 271.255 498.793 271.296 498.753C271.337 498.713 271.386 498.681 271.44 498.659C271.493 498.637 271.551 498.626 271.609 498.626H282.191C282.249 498.626 282.306 498.637 282.36 498.659C282.414 498.681 282.462 498.713 282.503 498.753C282.544 498.793 282.577 498.841 282.599 498.894C282.621 498.946 282.632 499.003 282.632 499.06V501.253H289.243V499.06C289.243 499.003 289.255 498.946 289.277 498.894C289.299 498.841 289.332 498.793 289.373 498.753C289.414 498.713 289.462 498.681 289.516 498.659C289.569 498.637 289.627 498.626 289.685 498.626H372.58C372.638 498.626 372.695 498.637 372.749 498.659C372.803 498.681 372.851 498.713 372.892 498.753C372.933 498.793 372.966 498.841 372.988 498.894C373.01 498.946 373.021 499.003 373.021 499.06V501.253H379.64V499.06C379.64 499.003 379.652 498.946 379.674 498.894C379.696 498.841 379.728 498.793 379.769 498.753C379.81 498.713 379.859 498.681 379.913 498.659C379.966 498.637 380.024 498.626 380.082 498.626H390.664C390.781 498.627 390.892 498.673 390.975 498.754C391.057 498.835 391.104 498.945 391.105 499.06V501.253H397.717V499.06C397.716 499.003 397.728 498.946 397.75 498.894C397.772 498.841 397.805 498.793 397.846 498.753C397.887 498.713 397.935 498.681 397.989 498.659C398.042 498.637 398.1 498.626 398.158 498.626H408.74C408.798 498.626 408.856 498.637 408.909 498.659C408.963 498.681 409.012 498.712 409.053 498.753C409.094 498.793 409.126 498.841 409.148 498.894C409.17 498.946 409.182 499.003 409.182 499.06V501.253H415.793V499.06C415.793 499.003 415.804 498.946 415.826 498.894C415.848 498.841 415.881 498.793 415.922 498.753C415.963 498.713 416.012 498.681 416.065 498.659C416.119 498.637 416.176 498.626 416.234 498.626H426.817C426.875 498.626 426.932 498.637 426.986 498.659C427.039 498.681 427.088 498.713 427.129 498.753C427.17 498.793 427.202 498.841 427.225 498.894C427.247 498.946 427.258 499.003 427.258 499.06V501.253H433.877V499.06C433.877 499.003 433.888 498.946 433.91 498.894C433.932 498.841 433.965 498.793 434.006 498.753C434.047 498.713 434.096 498.681 434.149 498.659C434.203 498.637 434.26 498.626 434.318 498.626H444.901C445.017 498.627 445.127 498.674 445.208 498.755C445.29 498.836 445.335 498.946 445.334 499.06V501.253H451.953V499.06C451.953 499.003 451.964 498.946 451.987 498.894C452.009 498.841 452.041 498.793 452.082 498.753C452.123 498.713 452.172 498.681 452.225 498.659C452.279 498.637 452.336 498.626 452.394 498.626H462.977C463.035 498.626 463.092 498.637 463.146 498.659C463.2 498.681 463.248 498.713 463.289 498.753C463.33 498.793 463.363 498.841 463.385 498.894C463.407 498.946 463.418 499.003 463.418 499.06V501.253H470.029V499.06C470.029 499.003 470.041 498.946 470.063 498.894C470.085 498.841 470.117 498.793 470.158 498.753C470.199 498.713 470.248 498.681 470.302 498.659C470.355 498.637 470.413 498.626 470.471 498.626H481.053C481.111 498.626 481.169 498.637 481.222 498.659C481.276 498.681 481.324 498.713 481.365 498.753C481.406 498.793 481.439 498.841 481.461 498.894C481.483 498.946 481.495 499.003 481.494 499.06V501.253H512.36C513.749 501.252 515.126 501.521 516.41 502.044C517.694 502.567 518.861 503.333 519.843 504.299C520.826 505.266 521.606 506.413 522.137 507.675C522.669 508.938 522.942 510.291 522.942 511.658V511.658Z" fill="#3F3D56"/>
<path id="Vector_11" d="M625.261 520.134H47.6729V521.684H625.261V520.134Z" fill="#3F3D56"/>
<path id="Vector_12" d="M494.61 313.6H363.456V310.942H303.986V313.6H172.292C169.94 313.6 167.683 314.519 166.019 316.155C164.356 317.791 163.421 320.009 163.421 322.323V498.905C163.421 501.219 164.356 503.438 166.019 505.073C167.683 506.709 169.94 507.628 172.292 507.628H494.61C496.963 507.628 499.219 506.709 500.883 505.073C502.547 503.438 503.481 501.219 503.481 498.905V322.323C503.481 321.177 503.252 320.043 502.806 318.985C502.36 317.926 501.707 316.965 500.883 316.155C500.059 315.345 499.081 314.702 498.005 314.264C496.929 313.825 495.775 313.6 494.61 313.6V313.6Z" fill="#3F3D56"/>
<path id="Vector_13" d="M333.709 394.619C344.589 394.619 353.409 385.947 353.409 375.249C353.409 364.551 344.589 355.879 333.709 355.879C322.83 355.879 314.01 364.551 314.01 375.249C314.01 385.947 322.83 394.619 333.709 394.619Z" stroke="#D0CDE1" stroke-width="1.57522" stroke-miterlimit="10"/>
<path id="Vector_14" d="M327.405 401.592C338.285 401.592 347.104 392.92 347.104 382.222C347.104 371.525 338.285 362.852 327.405 362.852C316.525 362.852 307.706 371.525 307.706 382.222C307.706 392.92 316.525 401.592 327.405 401.592Z" fill="#D0CDE1"/>
<path id="Vector_15" d="M85.453 512.306H63.3896V534H85.453V512.306Z" fill="#D0CDE1"/>
<path id="Vector_16" d="M72.0605 495.261V521.604H98.8518V495.261H72.0605ZM97.6856 520.457H73.2189V496.408H97.6856V520.457Z" fill="#3F3D56"/>
<path id="Vector_17" d="M596.063 512.306H574V534H596.063V512.306Z" fill="#D0CDE1"/>
<path id="Vector_18" d="M582.67 495.261V521.604H609.462V495.261H582.67ZM608.296 520.457H583.829V496.408H608.296V520.457Z" fill="#3F3D56"/>
<path id="Vector_19" d="M79.0659 172.53C113.594 172.53 141.584 145.008 141.584 111.058C141.584 77.1082 113.594 49.5863 79.0659 49.5863C44.5379 49.5863 16.5474 77.1082 16.5474 111.058C16.5474 145.008 44.5379 172.53 79.0659 172.53Z" fill="#38D39F"/>
<path id="Vector_20" d="M96.3142 43.7677C90.6535 43.0598 84.9244 43.0598 79.2637 43.7677C66.6525 45.3958 54.7811 50.5469 45.058 58.6099C35.3348 66.6729 28.1682 77.3092 24.4085 89.2568C22.6985 94.7017 21.7302 100.345 21.5288 106.04C21.5004 106.832 21.4814 107.633 21.4814 108.434C21.499 125.72 28.4906 142.293 40.9219 154.517C53.3531 166.74 70.2085 173.614 87.789 173.632C89.2004 173.632 90.6118 173.585 92.0043 173.501C95.2729 173.3 98.5216 172.857 101.723 172.179C117.011 168.946 130.646 160.505 140.219 148.347C149.792 136.189 154.687 121.095 154.04 105.733C153.393 90.3698 147.245 75.7261 136.682 64.3878C126.12 53.0495 111.822 45.7462 96.3142 43.7677H96.3142ZM108.543 168.397H108.534C103.194 170.189 97.6352 171.276 92.0042 171.629C90.6117 171.722 89.2003 171.769 87.7889 171.769C70.7119 171.748 54.3404 165.069 42.2651 153.196C30.1898 141.323 23.3968 125.225 23.3759 108.434C23.3759 107.633 23.3948 106.832 23.4232 106.04C24.0744 89.6767 31.138 74.1948 43.1354 62.8358C55.1327 51.4768 71.1338 45.1213 87.7889 45.0995C103.049 45.1004 117.814 50.4281 129.452 60.1336C141.09 69.8391 148.846 83.292 151.337 98.0954C153.829 112.899 150.895 128.091 143.058 140.966C135.221 153.841 122.989 163.562 108.543 168.397H108.543Z" fill="#3F3D56"/>
<path id="Vector_21" d="M88.7358 48.8251H86.8413V61.8646H88.7358V48.8251Z" fill="#3F3D56"/>
<path id="Vector_22" d="M45.5906 65.6256L44.251 66.9428L53.6283 76.1631L54.9679 74.8459L45.5906 65.6256Z" fill="#3F3D56"/>
<path id="Vector_23" d="M27.1646 107.503V109.366H40.4261V107.503H27.1646Z" fill="#3F3D56"/>
<path id="Vector_24" d="M44.2512 149.926L45.5908 151.243L54.9681 142.022L53.6285 140.705L44.2512 149.926Z" fill="#3F3D56"/>
<path id="Vector_25" d="M120.609 74.8459L121.949 76.1631L131.326 66.9428L129.986 65.6256L120.609 74.8459Z" fill="#3F3D56"/>
<path id="Vector_26" d="M135.151 107.503V109.366H148.412V107.503H135.151Z" fill="#3F3D56"/>
<path id="Vector_27" d="M121.949 140.705L120.609 142.022L129.986 151.243L131.326 149.926L121.949 140.705Z" fill="#3F3D56"/>
<path id="Vector_28" d="M88.7358 155.004H86.8413V168.043H88.7358V155.004Z" fill="#3F3D56"/>
<path id="Vector_29" d="M90.6301 104.709C89.8103 104.104 88.8131 103.777 87.7883 103.777C86.7635 103.777 85.7664 104.104 84.9466 104.709C84.3853 105.128 83.9232 105.662 83.592 106.273C83.1724 107.061 82.9909 107.95 83.0689 108.836C83.147 109.722 83.4813 110.568 84.0325 111.273C84.5836 111.978 85.3285 112.513 86.1791 112.815C87.0297 113.117 87.9505 113.173 88.8326 112.977C89.7147 112.781 90.5212 112.341 91.157 111.708C91.7927 111.076 92.2309 110.278 92.42 109.408C92.609 108.538 92.5409 107.634 92.2238 106.801C91.9066 105.968 91.3536 105.242 90.6301 104.709H90.6301ZM87.7883 111.228C87.0353 111.226 86.3138 110.931 85.7813 110.408C85.2489 109.884 84.9488 109.175 84.9466 108.434C84.9502 107.869 85.125 107.318 85.4487 106.851C85.7262 106.456 86.1028 106.137 86.542 105.927C86.9812 105.717 87.4681 105.622 87.9557 105.65C88.4433 105.679 88.9151 105.832 89.3254 106.092C89.7357 106.353 90.0707 106.713 90.2979 107.138C90.5252 107.563 90.637 108.039 90.6226 108.519C90.6082 108.999 90.468 109.468 90.2157 109.879C89.9634 110.29 89.6074 110.63 89.1821 110.867C88.7569 111.103 88.2768 111.228 87.7883 111.228V111.228Z" fill="#3F3D56"/>
<path id="Vector_30" d="M96.3137 27.4031H79.2632V44.1682H96.3137V27.4031Z" fill="#3F3D56"/>
<path id="Vector_31" d="M87.7882 30.1973C100.344 30.1973 110.522 26.6528 110.522 22.2804C110.522 17.9081 100.344 14.3636 87.7882 14.3636C75.2326 14.3636 65.0542 17.9081 65.0542 22.2804C65.0542 26.6528 75.2326 30.1973 87.7882 30.1973Z" fill="#3F3D56"/>
<path id="arrow" d="M89.997 72.0551H84.3135V103.722H89.997V72.0551Z" fill="#3F3D56"/>
<path id="Vector_32" d="M178.083 170.794H0V172.657H178.083V170.794Z" fill="#3F3D56"/>
<g id="left-plant">
<path id="Vector_33" d="M118.664 464.681C119.4 489.435 104.69 498.507 86.2288 499.037C85.8 499.05 85.3731 499.057 84.9481 499.06C84.092 499.066 83.2442 499.052 82.4047 499.018C65.7088 498.336 52.4929 489.622 51.8092 466.601C51.1016 442.776 81.1763 411.821 83.4327 409.531L83.4367 409.529C83.5225 409.442 83.5663 409.398 83.5663 409.398C83.5663 409.398 117.929 439.929 118.664 464.681Z" fill="#D0CDE1"/>
<path id="Vector_34" d="M84.8996 495.286L96.6265 478.139L84.9236 497.131L84.948 499.06C84.0919 499.066 83.2441 499.052 82.4046 499.018L82.9863 474.216L82.9703 474.024L82.9918 473.987L83.0475 471.644L70.2051 453.31L83.0323 469.89L83.0778 470.385L83.5171 451.646L72.4248 432.638L83.5487 448.354L83.4326 409.531L83.4329 409.402L83.4366 409.529L84.173 440.127L94.2823 427.698L84.2061 442.762L84.4267 459.524L93.7294 443.165L84.4609 461.988L84.5837 471.309L98.1123 448.521L84.6249 474.56L84.8996 495.286Z" fill="#3F3D56"/>
</g>
<g id="right-plant">
<path id="Vector_35" d="M629.275 464.681C630.01 489.435 615.3 498.507 596.839 499.037C596.41 499.05 595.983 499.057 595.558 499.06C594.702 499.066 593.855 499.052 593.015 499.018C576.319 498.336 563.103 489.622 562.42 466.601C561.712 442.776 591.787 411.821 594.043 409.531L594.047 409.529C594.133 409.442 594.177 409.398 594.177 409.398C594.177 409.398 628.54 439.929 629.275 464.681Z" fill="#D0CDE1"/>
<path id="Vector_36" d="M595.509 495.286L607.236 478.139L595.533 497.131L595.558 499.06C594.702 499.066 593.854 499.052 593.015 499.018L593.596 474.216L593.58 474.024L593.602 473.987L593.657 471.644L580.815 453.31L593.642 469.89L593.688 470.385L594.127 451.646L583.035 432.638L594.159 448.354L594.042 409.531L594.043 409.402L594.047 409.529L594.783 440.127L604.892 427.698L594.816 442.762L595.037 459.524L604.339 443.165L595.071 461.988L595.194 471.309L608.722 448.521L595.235 474.56L595.509 495.286Z" fill="#3F3D56"/>
</g>
</g>
<defs>
<clipPath id="clip0">
<rect width="629.301" height="534" fill="white"/>
</clipPath>
</defs>
</svg>
