<svg width="868" height="946" viewBox="0 0 868 946" fill="none" xmlns="http://www.w3.org/2000/svg">
<path d="M489.018 -116.913C488.82 -116.887 488.621 -116.861 488.423 -116.834C485.694 -115.146 598.551 -85.8221 977.167 21.6478C1367.69 132.496 1147.85 487.8 989.117 651.596L729.508 1268C547.373 1202.83 147.553 951.984 5.35011 469.973C-41.4436 242.127 300.583 -91.6664 488.423 -116.834C488.508 -116.887 488.708 -116.913 489.018 -116.913Z" fill="url(#paint0_linear)"/>
<path d="M489.018 -116.913C301.307 -92.3725 -41.4931 241.886 5.35011 469.973C147.553 951.984 547.373 1202.83 729.508 1268L989.117 651.596C1147.85 487.8 1367.69 132.496 977.167 21.6478C586.648 -89.2008 478.861 -116.913 489.018 -116.913ZM489.018 -116.913L591.786 -144" stroke="black" stroke-width="0.873255"/>
<defs>
<linearGradient id="paint0_linear" x1="1.16769" y1="472.404" x2="1193.56" y2="279.747" gradientUnits="userSpaceOnUse">
<stop offset="0.00833321" stop-color="#38D39F"/>
<stop offset="0.289583" stop-color="#38A4D3"/>
</linearGradient>
</defs>
</svg>
