<svg width="1259" height="1585" viewBox="0 0 1259 1585" fill="none" xmlns="http://www.w3.org/2000/svg">
<path d="M3.31664 818.47C-32.9303 627.281 368.227 -18.3779 364.127 -26L1123.79 624.74C1760.84 960.115 568.483 1243.09 450.349 1531.14C438.944 1558.95 430.858 1579.37 425.394 1593.58C410.33 1632.75 415.196 1624.63 425.394 1593.58C449.816 1519.22 504.82 1313.34 390.009 1310.1C209.86 1305.02 35.3488 987.427 3.31664 818.47Z" fill="url(#paint0_linear)"/>
<path d="M364.127 -26C368.227 -18.3779 -32.9303 627.281 3.31664 818.47C35.3488 987.427 209.86 1305.02 390.009 1310.1C570.157 1315.18 332.214 1819.19 450.349 1531.14C568.483 1243.09 1760.85 960.115 1123.79 624.74L364.127 -26Z" stroke="url(#paint1_linear)"/>
<defs>
<linearGradient id="paint0_linear" x1="1121.48" y1="657.135" x2="-30.7703" y2="774.184" gradientUnits="userSpaceOnUse">
<stop offset="0.128125" stop-color="#38D39F"/>
<stop offset="0.794792" stop-color="#38A4D3"/>
</linearGradient>
<linearGradient id="paint1_linear" x1="638.849" y1="33.7068" x2="638.849" y2="1621.26" gradientUnits="userSpaceOnUse">
<stop/>
<stop offset="1" stop-opacity="0"/>
</linearGradient>
</defs>
</svg>
